<?xml version="1.0" ?><svg viewBox="0 0 40 40" xmlns="http://www.w3.org/2000/svg"><g id="Logos"><g id="Canon"><path d="M12.11,21.74h.15v.43a4.22,4.22,0,0,1-3.12,1.27C7,23.44,5.26,22,5.26,20.31S7,17.18,9.14,17.18a4.06,4.06,0,0,1,3.48,1.73l-.37.21L10.1,20.31l1.3-2.08a2.5,2.5,0,0,0-1.3-.37,2.46,2.46,0,0,0,0,4.91A2.49,2.49,0,0,0,12.11,21.74Z"/><path d="M18.33,23.25l-1.07-3.87a1.48,1.48,0,0,0-1.92-1l-2.16.76v.17h2.21l.39,1.3a2.25,2.25,0,0,0-1.4-.47,1.83,1.83,0,0,0-2,1.61,1.82,1.82,0,0,0,2,1.6,2,2,0,0,0,1.86-1.08l.28,1Zm-3.18-.63a.87.87,0,1,1,.87-.87A.87.87,0,0,1,15.15,22.62Z"/><path d="M23.4,19.36v4H21.63V19.82a.45.45,0,0,0-.45-.45.46.46,0,0,0-.45.45v3.53H18.92V19.41H17.81v-.17l1.68-.75a.85.85,0,0,1,1.07.35l.15.26a.09.09,0,0,0,.11,0L22,18.51A1,1,0,0,1,23.4,19.36Z"/><path d="M34.69,19.36v4H32.92V19.82a.45.45,0,0,0-.44-.45.45.45,0,0,0-.45.45v3.53H30.22V19.41H29.11v-.17l1.68-.75a.85.85,0,0,1,1.07.35l.15.26a.08.08,0,0,0,.1,0l1.17-.62A1,1,0,0,1,34.69,19.36Z"/><path d="M26.7,18.4a2.48,2.48,0,1,0,2.48,2.48A2.48,2.48,0,0,0,26.7,18.4ZM27.28,23a.52.52,0,0,1-.66-.37l-.87-3.12a.52.52,0,0,1,.38-.66.32.32,0,0,1,.14,0,.53.53,0,0,1,.52.39l.87,3.12A.53.53,0,0,1,27.28,23Z"/></g></g></svg>