<?xml version='1.0' encoding='iso-8859-1'?>
<svg version="1.1" xmlns="http://www.w3.org/2000/svg" viewBox="0 0 44 44" xmlns:xlink="http://www.w3.org/1999/xlink" enable-background="new 0 0 44 44">
  <g>
    <g>
      <path d="m37,26h-14v-6h-2v6h-14c-1.104,0-2,0.896-2,2v7h2v-7h14v7h2v-7h14v7h2v-7c0-1.104-0.896-2-2-2z"/>
    </g>
  </g>
  <g>
    <g>
      <path fill-rule="evenodd" d="m9,20h26c1.104,0 2-0.896 2-2v-16c0-1.104-0.896-2-2-2h-26c-1.104,0-2,0.896-2,2v16c0,1.104 0.896,2 2,2zm0-18h26v16h-26v-16zm1,33h-8c-1.104,0-2,0.896-2,2v5c0,1.104 0.896,2 2,2h8c1.104,0 2-0.896 2-2v-5c0-1.104-0.896-2-2-2zm0,7h-8v-5h8v5zm16-7h-8c-1.104,0-2,0.896-2,2v5c0,1.104 0.896,2 2,2h8c1.104,0 2-0.896 2-2v-5c0-1.104-0.896-2-2-2zm0,7h-8v-5h8v5zm16-7h-8c-1.104,0-2,0.896-2,2v5c0,1.104 0.896,2 2,2h8c1.104,0 2-0.896 2-2v-5c0-1.104-0.896-2-2-2zm0,7h-8v-5h8v5z"/>
    </g>
  </g>
</svg>
